<svg xmlns="http://www.w3.org/2000/svg" viewBox="0 0 30 30" class="icon-call">
  <g fill="currentColor" fill-rule="nonzero">
    <path d="M24.724 20.132a4.162 4.162 0 00-2.794-1.077 4.178 4.178 0 00-3.091 1.372l-.907 1.002a4.148 4.148 0 00-.86 1.465l-.08.243-.239-.094a17.55 17.55 0 01-9.277-8.515l-.129-.257.276-.083a4.158 4.158 0 001.887-1.195l.906-1.002a4.137 4.137 0 001.071-3.004 4.138 4.138 0 00-1.366-2.882L8.59 4.722a4.156 4.156 0 00-2.794-1.077c-1.176 0-2.303.5-3.092 1.371L1.799 6.02a4.143 4.143 0 00-.333.42l-.042.047C.568 7.218-.16 8.999.262 11.179 2.21 21.322 10.754 29.05 21.042 29.972c1.35.123 2.62-.156 3.583-.747a4.186 4.186 0 001.018-.82l.906-1.003a4.172 4.172 0 00-.295-5.886l-1.53-1.384zM15.57 0a.972.972 0 000 1.943c6.808 0 12.348 5.54 12.348 12.349a.971.971 0 001.943 0C29.86 6.411 23.45 0 15.569 0z"/>
    <path d="M23.165 14.448a.971.971 0 101.942 0c0-5.345-4.349-9.694-9.695-9.694a.97.97 0 100 1.942c4.276 0 7.753 3.477 7.753 7.752z"/>
  </g>
</svg>
