<svg xmlns="http://www.w3.org/2000/svg" viewBox="0 0 27 27" class="icon-external">
  <path d="M24.214 4.048L14.132 14.13a.893.893 0 01-1.262-1.262L22.952 2.786h-6.773a.893.893 0 110-1.786h8.928c.493 0 .893.4.893.893v8.928a.893.893 0 01-1.786 0V4.048zm-16.071.523H3.677A2.673 2.673 0 001 7.243V23.33a2.686 2.686 0 002.682 2.672h16.063a2.679 2.679 0 002.682-2.682v-4.461a.893.893 0 00-1.786 0v4.46a.893.893 0 01-.896.897H3.682a.9.9 0 01-.896-.886V7.243c0-.49.398-.886.89-.886h4.467a.893.893 0 000-1.786z" fill="currentColor" stroke="currentColor" fill-rule="evenodd"/>
</svg>
