<svg viewBox="0 0 48 80" xmlns="http://www.w3.org/2000/svg"><g fill="currentColor" fill-rule="evenodd"><path d="M42.67 76.908c.573 1.45 1.576 2.415 2.72 2.415 1.203 0 2.249-1.062 2.804-2.635l-5.524.22M47.505 71.872l-.549-2.493-4.795-21.808-5.05 1.826 6.766 20.143c-.586.517-1.056 1.324-1.35 2.295l4.978.037M1.551 71.44C.665 71.44 0 73.136 0 75.257s.665 3.819 1.551 3.819c.998 0 1.552-1.698 1.552-3.82 0-2.12-.554-3.818-1.552-3.818M5.001 73.561c.089.514.136 1.092.136 1.705 0 .79-.076 1.522-.222 2.134h12.213c.514 1.564 1.404 2.6 2.418 2.6 1.594 0 2.886-2.557 2.886-5.712s-1.292-5.712-2.886-5.712c-1.145 0-2.132 1.324-2.598 3.236l-10.84 1.393 5.608-21.026 10.138-4.616 1.498 21.087c1.14.88 1.95 3.07 1.95 5.638 0 1.14-.162 2.202-.438 3.112h2.347V25.65l3.315 1.213.895 6.576c1.015-9.7 2.255-13.422 4.886-18.231l4.756 5.035 2.423-1.958L39.85 4.206 41.901.01C30.619 7.376 25.118 16.886 21.202 29.567l-10.07 6.902-7.66 34.969h.09c.65 0 1.107.642 1.358 1.718l.081.405M46.065 2.661s-1.098.528-3.336 2.3l1.545.737 1.791-3.037"/></g></svg>