<?xml version="1.0" standalone="no"?>
<!DOCTYPE svg PUBLIC "-//W3C//DTD SVG 20010904//EN"
 "http://www.w3.org/TR/2001/REC-SVG-20010904/DTD/svg10.dtd">
<svg version="1.0" xmlns="http://www.w3.org/2000/svg"
 width="1280.000000pt" height="1280.000000pt" viewBox="0 0 1280.000000 1280.000000"
 preserveAspectRatio="xMidYMid meet">
<metadata>
Created by potrace 1.11, written by Peter Selinger 2001-2013
</metadata>
<g transform="translate(0.000000,1280.000000) scale(0.100000,-0.100000)"
fill="#000000" stroke="none">
<path d="M9155 12726 c-176 -121 -260 -180 -279 -198 -11 -10 -23 -18 -26 -18
-4 0 -16 -8 -28 -18 -11 -10 -33 -27 -47 -38 -15 -10 -32 -24 -39 -29 -6 -6
-51 -42 -101 -80 -49 -39 -101 -81 -115 -94 -14 -13 -41 -35 -60 -50 -18 -14
-46 -37 -60 -51 -15 -14 -53 -47 -85 -75 -32 -27 -151 -142 -265 -255 -246
-245 -330 -338 -506 -557 -100 -125 -115 -144 -164 -208 -16 -22 -34 -45 -40
-52 -5 -7 -10 -16 -10 -22 0 -5 -4 -11 -10 -13 -9 -3 -19 -17 -155 -219 -38
-57 -72 -106 -75 -109 -3 -3 -12 -17 -20 -32 -8 -15 -51 -87 -96 -160 -44 -73
-94 -158 -110 -188 -16 -30 -32 -56 -36 -58 -5 -2 -8 -8 -8 -13 0 -5 -11 -27
-24 -48 -14 -21 -22 -42 -19 -45 4 -3 1 -6 -6 -6 -7 0 -10 -4 -6 -9 3 -5 1
-13 -5 -16 -10 -6 -250 -485 -250 -498 0 -3 -14 -36 -32 -74 -18 -37 -33 -72
-34 -78 -5 -18 -75 -179 -92 -210 -9 -16 -15 -31 -14 -33 1 -1 -5 -18 -13 -38
-8 -20 -15 -42 -15 -48 0 -7 -4 -16 -9 -21 -5 -6 -18 -35 -29 -65 -11 -30 -39
-107 -62 -170 -24 -63 -71 -196 -105 -295 -34 -99 -65 -187 -68 -195 -3 -8
-16 -49 -28 -90 -58 -194 -40 -171 -231 -300 -94 -63 -176 -120 -182 -126 -7
-6 -26 -19 -44 -28 -18 -9 -32 -21 -32 -26 0 -6 -6 -10 -14 -10 -8 0 -21 -6
-28 -12 -24 -24 -106 -78 -116 -78 -5 0 -12 -7 -16 -15 -3 -8 -12 -15 -20 -15
-8 0 -16 -3 -18 -7 -1 -5 -30 -26 -63 -49 -33 -22 -96 -66 -140 -96 -44 -30
-123 -83 -175 -118 -52 -35 -97 -66 -100 -70 -8 -8 -179 -124 -201 -135 -10
-5 -19 -13 -19 -17 0 -5 -6 -8 -14 -8 -8 0 -16 -3 -18 -7 -1 -5 -30 -26 -62
-48 -33 -22 -64 -44 -70 -50 -6 -5 -22 -16 -36 -23 -62 -32 -77 -58 -95 -162
-2 -14 -7 -35 -10 -47 -3 -13 -7 -33 -10 -45 -2 -13 -8 -36 -12 -53 -3 -16 -7
-37 -8 -45 -1 -8 -7 -33 -13 -55 -6 -22 -13 -53 -15 -70 -3 -16 -9 -48 -15
-70 -6 -22 -14 -53 -16 -70 -6 -29 -11 -55 -20 -92 -10 -41 -58 -260 -62 -287
-3 -15 -17 -76 -30 -135 -14 -58 -27 -113 -29 -122 -2 -9 -6 -32 -9 -50 -9
-56 -15 -79 -20 -88 -3 -5 -8 -28 -11 -51 -3 -24 -8 -47 -11 -51 -3 -5 -7 -21
-9 -36 -9 -51 -27 -138 -32 -153 -3 -8 -7 -22 -8 -30 -3 -17 -11 -55 -19 -90
-3 -14 -8 -36 -10 -50 -3 -14 -7 -34 -10 -45 -2 -11 -14 -67 -26 -125 -21 -99
-24 -114 -30 -132 -4 -15 -41 -173 -44 -193 -2 -11 -13 -65 -25 -120 -12 -55
-24 -111 -26 -125 -3 -14 -14 -65 -26 -115 -11 -49 -23 -101 -26 -115 -4 -14
-7 -35 -7 -47 -1 -13 -5 -23 -10 -23 -5 0 -7 -3 -4 -6 3 -3 0 -29 -8 -57 -7
-29 -15 -63 -18 -77 -3 -14 -7 -36 -10 -50 -3 -14 -8 -36 -11 -50 -3 -14 -7
-34 -9 -45 -2 -11 -16 -72 -31 -135 -14 -63 -28 -127 -30 -142 -2 -15 -8 -44
-14 -65 -6 -21 -12 -49 -15 -63 -2 -14 -16 -79 -31 -145 -15 -66 -28 -129 -30
-140 -2 -11 -13 -58 -24 -105 -11 -47 -22 -98 -25 -115 -3 -16 -8 -40 -11 -53
-3 -12 -7 -32 -10 -45 -2 -12 -8 -35 -12 -52 -4 -16 -7 -32 -8 -35 -1 -3 -5
-25 -10 -50 -10 -53 -12 -59 -15 -62 -1 -2 -3 -10 -5 -18 -1 -8 -10 -51 -20
-95 -9 -44 -18 -89 -20 -100 -2 -11 -13 -60 -24 -108 -12 -49 -19 -93 -16 -98
4 -5 2 -9 -3 -9 -6 0 -14 -24 -18 -53 -9 -63 -6 -48 -26 -132 -40 -166 -59
-252 -63 -279 -2 -15 -7 -35 -9 -45 -3 -9 -8 -29 -11 -46 -8 -46 -22 -110 -25
-110 -1 0 -3 -9 -5 -20 -9 -58 -18 -101 -26 -122 -7 -20 -6 -23 17 -23 56 0
127 -58 160 -130 35 -79 41 -95 50 -142 2 -13 6 -34 9 -48 11 -46 16 -84 20
-155 3 -38 7 -89 8 -112 2 -24 0 -43 -5 -43 -5 0 -4 -8 1 -19 6 -10 8 -21 5
-24 -3 -2 -7 -37 -9 -76 -2 -39 -9 -99 -15 -133 -7 -39 -8 -63 -2 -67 6 -3
439 -5 964 -5 524 1 961 0 971 -3 9 -2 17 -11 17 -19 0 -23 64 -157 101 -211
46 -66 99 -118 156 -150 38 -21 62 -26 113 -27 80 0 98 5 154 43 49 34 136
129 136 148 0 7 4 13 8 13 24 0 121 261 138 370 3 19 7 37 9 41 24 38 24 472
0 589 -11 57 -57 234 -65 249 -84 174 -99 199 -160 261 -104 107 -210 133
-325 79 -49 -23 -142 -110 -165 -155 -8 -16 -18 -31 -21 -34 -20 -17 -109
-241 -109 -274 0 -19 -17 -29 -50 -31 -14 -1 -43 -5 -65 -8 -22 -4 -60 -9 -85
-12 -25 -2 -61 -7 -80 -9 -19 -3 -55 -8 -80 -11 -25 -3 -56 -7 -70 -10 -14 -2
-50 -7 -80 -10 -30 -3 -64 -7 -75 -9 -11 -2 -47 -7 -80 -10 -70 -8 -92 -11
-160 -22 -27 -4 -53 -7 -56 -6 -4 1 -33 -3 -65 -8 -33 -5 -86 -12 -119 -15
-33 -4 -67 -8 -75 -11 -8 -2 -42 -6 -75 -9 -33 -3 -67 -8 -75 -10 -14 -4 -107
-15 -175 -21 -16 -1 -30 -3 -30 -4 0 -1 -20 -4 -45 -6 -68 -8 -95 -12 -95 -14
0 -1 -24 -3 -53 -5 -59 -3 -56 -10 -36 65 12 49 53 195 54 195 2 0 10 34 14
55 1 8 8 35 15 60 7 25 14 52 16 60 6 30 65 246 75 277 6 18 13 42 15 55 7 35
55 221 62 238 9 21 9 20 18 65 13 56 12 55 15 58 2 2 5 17 14 55 3 12 7 26 10
30 3 5 8 22 11 38 3 16 14 63 26 104 11 41 22 82 23 90 2 8 9 35 16 60 7 25
14 50 15 55 2 6 15 55 30 110 15 55 29 108 30 118 2 9 6 21 9 25 3 5 8 22 10
38 3 16 14 59 25 97 11 37 20 70 20 72 1 3 1 6 2 8 0 1 2 9 4 17 2 8 14 51 26
95 11 44 23 89 25 100 2 11 11 43 19 70 11 39 59 215 100 375 3 8 18 65 34
125 16 61 45 172 65 247 20 76 41 149 46 163 5 14 7 25 4 25 -2 0 0 9 6 21 6
11 12 30 13 42 1 12 7 29 12 37 13 20 70 51 79 43 3 -3 6 -1 6 5 0 7 8 12 18
12 10 0 22 4 27 9 6 4 123 59 260 121 138 62 292 132 343 156 51 24 95 44 97
44 2 0 47 20 100 45 91 43 164 76 175 80 12 4 86 38 177 81 54 25 103 47 109
48 7 1 18 7 25 13 8 6 16 11 19 11 3 0 41 17 85 37 100 45 100 45 102 15 1
-14 4 -56 8 -95 3 -38 8 -99 10 -135 7 -109 24 -346 31 -430 3 -30 7 -91 10
-135 2 -44 6 -105 8 -135 3 -30 7 -93 11 -140 3 -47 8 -114 11 -150 5 -69 9
-134 19 -290 4 -52 8 -111 10 -130 2 -19 7 -84 10 -145 4 -60 9 -130 11 -155
2 -25 6 -85 9 -134 3 -49 7 -109 10 -135 3 -25 8 -86 11 -136 8 -132 14 -218
29 -420 3 -38 7 -106 10 -150 3 -44 8 -105 10 -135 3 -30 8 -93 11 -140 9
-149 9 -149 42 -183 55 -55 92 -101 98 -122 4 -11 10 -22 14 -25 11 -7 70
-137 70 -153 0 -7 4 -17 9 -23 8 -9 41 -119 47 -159 2 -11 8 -38 13 -60 17
-70 25 -176 24 -335 -1 -167 -4 -204 -28 -338 -22 -116 -20 -111 -28 -118 -4
-4 -7 -14 -7 -23 0 -14 22 -16 182 -15 101 1 185 2 188 3 3 1 5 1862 4 4136 0
2274 3 4135 8 4135 8 0 109 -35 143 -50 11 -5 38 -14 60 -21 22 -6 46 -17 54
-23 8 -6 17 -10 20 -10 9 2 136 -41 196 -66 11 -4 28 -11 38 -14 11 -4 17 -16
18 -38 0 -18 2 -42 5 -53 2 -11 6 -45 9 -75 3 -30 8 -62 10 -70 2 -8 7 -41 10
-73 4 -32 9 -68 11 -80 3 -12 7 -43 9 -69 3 -26 7 -59 10 -75 3 -15 8 -46 10
-68 3 -22 7 -53 9 -70 3 -16 8 -52 11 -80 4 -27 8 -61 11 -75 2 -14 7 -45 10
-70 3 -25 7 -54 9 -65 2 -11 4 -31 4 -44 1 -31 11 -22 16 15 2 16 4 29 5 29 0
0 3 27 5 60 5 57 7 75 20 170 3 22 7 60 9 85 3 25 9 77 15 115 5 39 13 93 16
120 4 28 8 62 11 76 2 15 6 44 9 65 3 22 7 50 10 64 3 14 8 45 11 70 3 25 7
52 9 60 2 8 7 35 10 60 4 24 11 52 15 61 5 9 7 19 4 22 -4 3 -1 28 5 54 12 51
18 79 26 128 7 40 61 274 81 350 8 33 19 78 25 100 10 41 131 400 165 490 10
28 22 52 27 53 4 2 7 10 7 18 0 24 168 379 238 504 20 36 37 69 37 74 1 29 33
4 131 -100 60 -64 132 -140 159 -169 28 -29 106 -113 175 -186 69 -73 139
-147 155 -164 17 -17 58 -61 92 -97 l63 -66 77 61 c43 34 80 64 83 67 3 3 28
23 55 45 121 96 172 142 169 156 -1 8 -9 39 -18 70 -9 31 -18 65 -20 75 -2 11
-9 39 -16 64 -7 25 -14 52 -16 60 -2 8 -12 48 -23 88 -10 39 -17 72 -14 72 3
0 1 6 -4 13 -6 6 -14 30 -18 52 -17 85 -19 93 -28 115 -6 13 -23 80 -42 163
-2 10 -13 51 -24 91 -11 40 -22 83 -25 97 -3 13 -28 112 -57 219 -28 107 -55
211 -59 230 -5 19 -16 62 -25 95 -9 33 -18 67 -20 75 -1 8 -8 35 -15 60 -7 25
-14 53 -16 63 -1 10 -13 52 -24 95 -12 42 -23 84 -25 92 -2 8 -10 42 -19 75
-9 33 -19 69 -21 80 -2 11 -14 59 -26 107 l-23 87 32 62 c18 34 32 68 32 75 0
8 5 14 10 14 6 0 10 4 10 9 0 5 41 94 92 197 50 104 90 191 89 193 -2 2 1 7 6
10 14 10 52 91 45 95 -4 2 -47 -24 -97 -58z"/>
<path d="M9893 12357 c-13 -5 -23 -14 -23 -19 0 -4 -5 -8 -11 -8 -12 0 -251
-157 -285 -187 -11 -10 -35 -29 -54 -43 -39 -27 -41 -29 -89 -67 l-34 -27 123
-58 c67 -32 123 -57 124 -56 1 2 14 22 29 45 15 24 27 47 27 53 0 5 5 10 10
10 6 0 10 4 10 10 0 5 24 49 53 97 30 49 56 93 58 98 2 6 24 43 48 83 24 40
42 74 40 76 -2 2 -14 -1 -26 -7z"/>
<path d="M9265 5173 c-22 -8 -56 -19 -75 -25 -19 -5 -39 -13 -45 -16 -5 -4
-14 -7 -20 -9 -5 -1 -73 -25 -150 -53 -77 -29 -158 -58 -180 -65 -22 -8 -62
-23 -90 -33 -27 -11 -52 -20 -55 -20 -3 0 -21 -6 -40 -14 -19 -8 -52 -20 -72
-27 -21 -7 -38 -14 -38 -16 0 -5 29 -94 37 -115 3 -8 7 -19 9 -25 3 -14 104
-317 111 -335 3 -8 7 -19 9 -25 1 -5 28 -84 59 -175 31 -91 58 -172 60 -180 2
-8 20 -62 40 -120 20 -58 38 -109 39 -115 2 -5 6 -17 9 -25 3 -8 29 -85 57
-170 28 -85 54 -162 57 -170 3 -8 7 -19 8 -25 2 -5 24 -71 50 -145 25 -74 50
-148 55 -165 13 -46 370 -1107 380 -1130 4 -11 11 -33 15 -50 4 -16 12 -43 19
-60 8 -16 19 -50 27 -75 7 -25 16 -49 19 -55 4 -5 10 -22 14 -37 5 -22 0 -33
-28 -60 -39 -38 -106 -134 -106 -153 0 -7 -6 -18 -14 -24 -7 -6 -19 -32 -26
-56 -7 -25 -17 -48 -21 -51 -5 -3 -9 -15 -9 -27 l0 -22 394 -2 395 -2 -5 22
c-4 21 -17 87 -19 97 -1 3 -7 32 -15 65 -7 33 -13 66 -11 73 1 6 -2 12 -6 12
-5 0 -9 8 -9 18 -1 22 -9 63 -24 127 -7 28 -14 59 -15 70 -2 11 -11 52 -20 90
-10 39 -19 79 -20 90 -4 23 -7 40 -35 160 -12 50 -24 104 -26 120 -3 17 -7 37
-10 45 -3 8 -8 26 -10 40 -4 21 -29 133 -50 225 -2 11 -7 34 -10 50 -2 17 -9
46 -14 65 -5 19 -11 46 -14 60 -9 45 -15 74 -30 140 -21 91 -64 290 -70 322
-2 15 -7 31 -9 35 -3 5 -8 24 -11 43 -6 38 -27 137 -52 238 -8 34 -17 75 -18
90 -2 15 -9 45 -14 67 -6 22 -13 51 -16 65 -14 74 -58 277 -63 290 -3 8 -7 22
-8 30 -1 8 -7 38 -13 65 -7 28 -14 61 -17 75 -4 25 -71 327 -80 365 -3 11 -10
45 -15 75 -6 30 -14 62 -17 70 -3 8 -5 19 -4 24 1 4 -3 23 -9 41 -6 19 -13 46
-16 62 -2 15 -7 39 -10 53 -3 14 -8 36 -10 50 -3 14 -9 41 -14 60 -5 19 -11
46 -14 60 -3 14 -8 36 -11 50 -3 14 -8 38 -11 55 -3 16 -6 30 -7 31 -1 1 -20
-4 -42 -13z"/>
<path d="M2762 1359 c-19 -7 -55 -41 -87 -81 -28 -34 -61 -124 -91 -243 -13
-53 -19 -144 -18 -290 2 -164 6 -231 18 -242 3 -3 6 -17 6 -30 0 -58 55 -192
107 -261 59 -78 150 -84 219 -13 27 28 74 108 80 136 2 6 12 46 24 90 24 94
34 198 33 350 -1 111 -9 241 -17 254 -2 3 -7 27 -11 51 -4 25 -10 50 -15 55
-5 6 -9 15 -9 20 -1 28 -38 105 -68 143 -53 65 -107 84 -171 61z"/>
<path d="M10026 522 c-2 -1 -59 -5 -127 -7 -68 -2 -191 -7 -274 -11 -82 -4
-169 -7 -193 -7 -51 -1 -51 -5 11 -117 55 -99 153 -198 237 -238 58 -27 74
-31 145 -29 127 3 227 61 327 187 15 19 28 41 28 48 0 6 4 12 9 12 5 0 15 16
22 35 7 19 17 35 21 35 4 0 8 22 8 49 l0 49 -106 -2 c-58 0 -107 -2 -108 -4z"/>
</g>
</svg>
